<?xml version="1.0" encoding="UTF-8"?>
<svg id="Layer_2" data-name="Layer 2" xmlns="http://www.w3.org/2000/svg" viewBox="0 0 330.06 259.12">
  <defs>
    <style>
      .cls-1 {
        font-family: AbarHighFaNum-Regular, 'Abar High FaNum';
        font-size: 11.92px;
      }

      .cls-1, .cls-2 {
        fill: #fff;
      }

      .cls-3 {
        fill: #c1272d;
      }
    </style>
  </defs>
  <g id="Layer_1-2" data-name="Layer 1">
    <g>
      <path class="cls-3" d="M61.39,259.04v-5.79h1.85c.69,0,1.22.13,1.58.4.36.27.54.65.54,1.16,0,.32-.08.59-.23.81s-.38.37-.66.45c.32.07.58.22.78.46.19.24.29.52.29.84,0,.54-.17.95-.51,1.23-.34.29-.83.43-1.49.44h-2.14ZM63.32,255.78c.38,0,.65-.07.83-.22.18-.14.26-.37.26-.66,0-.61-.38-.91-1.16-.91h-.93v1.79h.99ZM63.51,258.3c.34,0,.6-.08.79-.25.19-.17.28-.39.28-.69s-.09-.52-.26-.69c-.18-.17-.42-.25-.74-.25h-1.26v1.88h1.19Z"/>
      <path class="cls-3" d="M79.22,253.25h.91l2.13,5.79h-1.01l-.45-1.34h-2.24l-.45,1.34h-1.01l2.13-5.79ZM80.56,256.97l-.89-2.61-.88,2.61h1.77Z"/>
      <path class="cls-3" d="M97.54,258.91c-.39.14-.82.21-1.29.21s-.87-.1-1.23-.3c-.36-.2-.64-.5-.85-.89-.21-.39-.31-.85-.32-1.39v-.69c-.01-.48.07-.93.25-1.34.18-.41.44-.73.79-.98.35-.24.78-.37,1.29-.37.66,0,1.18.16,1.56.48.39.32.61.78.67,1.37h-.91c-.05-.38-.19-.65-.4-.84-.21-.18-.51-.27-.88-.27-.44,0-.78.17-1.03.52-.25.34-.38.82-.38,1.42v.56c0,.63.13,1.12.4,1.46.26.34.64.51,1.12.51.26,0,.49-.03.69-.1s.35-.16.46-.28v-1.21h-1.25v-.67h2.21v2.23c-.19.23-.49.41-.88.55Z"/>
      <path class="cls-3" d="M110.65,253.25h.94v2.46h2.65v-2.46h.94v5.79h-.94v-2.6h-2.65v2.6h-.94v-5.79Z"/>
      <path class="cls-3" d="M127.49,253.25h3.78v.74h-2.85v1.72h2.44v.72h-2.44v1.87h2.84v.74h-3.77v-5.79Z"/>
      <path class="cls-3" d="M145.34,256.84h-1.22v2.21h-.95v-5.79h2.1c.65,0,1.15.15,1.52.45.37.3.55.72.55,1.26,0,.4-.1.73-.29,1.01-.19.28-.47.48-.82.61l1.33,2.4v.06h-1.01l-1.21-2.21ZM145.35,256.09c.32,0,.58-.1.77-.29.19-.19.29-.44.29-.75,0-.33-.1-.58-.3-.77-.2-.19-.48-.28-.84-.28h-1.15v2.09h1.23Z"/>
      <path class="cls-3" d="M160.56,258.79c-.36-.23-.64-.54-.84-.95s-.3-.87-.3-1.4v-.52c0-.53.09-1.01.28-1.42.19-.42.46-.74.82-.97.36-.23.79-.35,1.28-.35s.89.11,1.25.34.64.54.83.95.29.89.29,1.43v.49c0,.54-.1,1.02-.29,1.44-.2.42-.47.74-.83.97s-.77.34-1.25.34-.88-.11-1.25-.34ZM160.76,257.85c.25.35.6.53,1.05.53s.79-.17,1.04-.52.37-.83.37-1.46v-.49c0-.63-.12-1.12-.37-1.46-.25-.34-.59-.52-1.04-.52s-.79.16-1.04.49c-.25.33-.38.79-.38,1.38v.59c0,.63.12,1.12.37,1.47Z"/>
      <path class="cls-3" d="M177.22,258.3h2.61v.74h-3.55v-5.79h.94v5.05Z"/>
      <path class="cls-3" d="M192.42,258.79c-.36-.23-.64-.54-.84-.95s-.3-.87-.3-1.4v-.52c0-.53.09-1.01.28-1.42.19-.42.46-.74.82-.97.36-.23.79-.35,1.28-.35s.89.11,1.25.34.64.54.83.95.29.89.29,1.43v.49c0,.54-.1,1.02-.29,1.44-.2.42-.47.74-.83.97s-.77.34-1.25.34-.88-.11-1.25-.34ZM192.61,257.85c.25.35.6.53,1.05.53s.79-.17,1.04-.52.37-.83.37-1.46v-.49c0-.63-.12-1.12-.37-1.46-.25-.34-.59-.52-1.04-.52s-.79.16-1.04.49c-.25.33-.38.79-.38,1.38v.59c0,.63.12,1.12.37,1.47Z"/>
      <path class="cls-3" d="M209.08,258.3h2.61v.74h-3.55v-5.79h.94v5.05Z"/>
      <path class="cls-3" d="M224.28,258.79c-.36-.23-.64-.54-.84-.95s-.3-.87-.3-1.4v-.52c0-.53.09-1.01.28-1.42.19-.42.46-.74.82-.97.36-.23.79-.35,1.28-.35s.89.11,1.25.34.64.54.83.95.29.89.29,1.43v.49c0,.54-.1,1.02-.29,1.44-.2.42-.47.74-.83.97s-.77.34-1.25.34-.88-.11-1.25-.34ZM224.47,257.85c.25.35.6.53,1.05.53s.79-.17,1.04-.52.37-.83.37-1.46v-.49c0-.63-.12-1.12-.37-1.46-.25-.34-.59-.52-1.04-.52s-.79.16-1.04.49c-.25.33-.38.79-.38,1.38v.59c0,.63.12,1.12.37,1.47Z"/>
      <path class="cls-3" d="M244.26,253.25v3.88c0,.62-.19,1.11-.57,1.46s-.9.53-1.57.53c-.44,0-.82-.08-1.14-.24s-.58-.39-.75-.69c-.17-.3-.26-.65-.26-1.06v-3.88h.95v3.87c0,.4.11.71.32.93s.51.33.89.33.67-.11.88-.33c.21-.22.31-.53.31-.94v-3.87h.95Z"/>
      <path class="cls-3" d="M256.54,253.25h1.24l1.7,4.58,1.69-4.58h1.25v5.79h-.95v-1.15l.09-3.49-1.76,4.64h-.64l-1.76-4.62.1,3.42v1.2h-.95v-5.79Z"/>
    </g>
    <path class="cls-3" d="M270.6,178.65h.99c3.57,36.77-76.05,11.19-106.7,32.66-14.99-10.5-41.62-9.75-64.5-10.54-23.92-.82-43.73-3.33-41.91-22.12h.99C26.63,178.65,0,152.03,0,119.17s36.63-59.48,69.47-59.48h-20.29v-5.28c0-45.6,106.03-9.09,116.11-54.42,10.07,45.32,115.6,8.82,115.6,54.42v5.28h-20.29c32.84,0,69.47,26.64,69.47,59.48s-26.63,59.48-59.47,59.48Z"/>
    <g>
      <path class="cls-3" d="M68.82,230.75c.37.56.55,1.4.55,2.5,0,.6-.13,1.29-.4,2.05-.26.76-.57,1.42-.91,1.97-.34.55-.62.83-.83.83-.32,0-1.05-.08-2.21-.25-1.03-.15-1.64-.22-1.82-.22-.28,0-.47.03-.55.08l.02.24c.01.24.08.87.2,1.89.12,1.01.29,2.22.5,3.61l-2.05,1.51c-.05-.96-.08-2.41-.08-4.38,0-.86.18-1.78.53-2.75.35-.98.77-1.82,1.25-2.54.48-.72.88-1.12,1.19-1.22.35-1.03.67-1.84.96-2.43.29-.59.6-1.02.92-1.3s.71-.42,1.15-.42c.68,0,1.21.28,1.58.84ZM66.18,234.21c1.48.16,2.42.24,2.79.24l-.02-.08c-.13-.67-.35-1.13-.67-1.38s-.8-.37-1.45-.37-1.14.11-1.51.32-.7.58-1,1.11c.14,0,.75.05,1.85.16Z"/>
      <path class="cls-3" d="M76.37,238.11c-.16.72-.39,1.36-.7,1.9-.31.55-.67.97-1.09,1.28-.47.36-1.14.68-1.99.95s-1.61.41-2.27.41c-.33,0-.63-.08-.91-.24-.28-.16-.58-.44-.89-.84-.32-.4-.69-.97-1.12-1.71,2.2-.12,4.1-.33,5.69-.65s2.67-.68,3.24-1.1l-.03-.32c-.5.11-1.06.19-1.71.24-.64.05-1.22.08-1.74.08-.76,0-1.33-.19-1.71-.58-.38-.39-.58-.91-.58-1.57,0-.61.12-1.36.36-2.27.24-.91.58-1.7,1.03-2.37.44-.67.95-1.01,1.53-1.01.5,0,.96.17,1.38.52.43.34.79.83,1.09,1.45.3.62.5,1.32.61,2.09h1.26l-.79,3.74h-.66ZM71.41,234.45c.3.1.76.15,1.36.15,1,0,1.88-.04,2.65-.11-.59-.99-1.47-1.48-2.65-1.48-.31,0-.6.05-.88.16-.28.11-.5.24-.68.4s-.26.32-.26.48c0,.17.15.3.46.41Z"/>
      <path class="cls-3" d="M80.57,237.11c-.52-.66-.8-1.79-.85-3.37-.37,2.37-.82,3.71-1.34,4.04-.18.11-.39.19-.64.24-.25.05-.48.08-.7.08-.07,0-.13-.09-.17-.27s-.06-.38-.06-.6c0-.52.05-1,.14-1.44.09-.44.22-.79.38-1.04.16-.25.33-.38.5-.38.38,0,.73-.02,1.05-.06.32-.04.55-.1.69-.18,0-.62-.03-1.28-.08-1.99l-.39-5.01,2.68-1.75-.32,6.76c-.04.82.11,1.39.47,1.73.35.33.93.5,1.75.5l-.79,3.74c-1.02,0-1.79-.33-2.31-1Z"/>
      <path class="cls-3" d="M82.7,237.84c-.04-.18-.06-.38-.06-.6,0-.52.05-1,.14-1.44.09-.44.22-.79.38-1.04.16-.25.33-.38.5-.38h2.37l-.79,3.74h-2.37c-.07,0-.13-.09-.17-.27Z"/>
      <path class="cls-3" d="M85.07,237.84c-.04-.18-.06-.38-.06-.6,0-.52.05-1,.14-1.44.09-.44.22-.79.38-1.04.16-.25.33-.38.5-.38h2.37l-.79,3.74h-2.37c-.07,0-.13-.09-.17-.27Z"/>
      <path class="cls-3" d="M87.44,237.84c-.04-.18-.06-.38-.06-.6,0-.52.05-1,.14-1.44.09-.44.22-.79.38-1.04.16-.25.33-.38.5-.38h2.37l-.79,3.74h-2.37c-.07,0-.13-.09-.17-.27Z"/>
      <path class="cls-3" d="M89.81,237.84c-.04-.18-.06-.38-.06-.6,0-.52.05-1,.14-1.44.09-.44.22-.79.38-1.04.16-.25.33-.38.5-.38h2.37l-.79,3.74h-2.37c-.07,0-.13-.09-.17-.27Z"/>
      <path class="cls-3" d="M92.18,237.84c-.04-.18-.06-.38-.06-.6,0-.52.05-1,.14-1.44.09-.44.22-.79.38-1.04.16-.25.33-.38.5-.38h2.37l-.79,3.74h-2.37c-.07,0-.13-.09-.17-.27Z"/>
      <path class="cls-3" d="M94.54,237.84c-.04-.18-.06-.38-.06-.6,0-.52.05-1,.14-1.44.09-.44.22-.79.38-1.04.16-.25.33-.38.5-.38h2.37l-.79,3.74h-2.37c-.07,0-.13-.09-.17-.27Z"/>
      <path class="cls-3" d="M96.91,237.84c-.04-.18-.06-.38-.06-.6,0-.52.05-1,.14-1.44.09-.44.22-.79.38-1.04.16-.25.33-.38.5-.38h2.37l-.79,3.74h-2.37c-.07,0-.13-.09-.17-.27Z"/>
      <path class="cls-3" d="M99.28,237.84c-.04-.18-.06-.38-.06-.6,0-.52.05-1,.14-1.44.09-.44.22-.79.38-1.04.16-.25.33-.38.5-.38h2.37l-.79,3.74h-2.37c-.07,0-.13-.09-.17-.27Z"/>
      <path class="cls-3" d="M101.65,237.84c-.04-.18-.06-.38-.06-.6,0-.52.05-1,.14-1.44.09-.44.22-.79.38-1.04.16-.25.33-.38.5-.38h2.37l-.79,3.74h-2.37c-.07,0-.13-.09-.17-.27Z"/>
      <path class="cls-3" d="M110.94,237.76c-.65-.23-1.19-.61-1.61-1.15-.48.51-1.14.89-1.98,1.13s-1.89.37-3.15.37c-.07,0-.13-.09-.17-.27s-.06-.38-.06-.6c0-.52.05-1,.14-1.44.09-.44.22-.79.38-1.04.16-.25.33-.38.5-.38,1.13,0,1.93-.03,2.42-.08-.36-.52-.71-1.1-1.06-1.73-.56.13-.88.2-.96.22l1.03-2.47c.34-.17.92-.33,1.75-.49.83-.15,1.61-.23,2.36-.23.96,0,1.68.14,2.18.42.5.28.74.7.74,1.25,0,.22-.07.6-.21,1.12-.14.53-.28.97-.42,1.35l-.55.64h2.05l-.79,3.74c-1.06,0-1.92-.11-2.57-.34ZM108.95,233.32c.38.33.74.61,1.07.82.49-.22,1.03-.5,1.59-.82.57-.32.99-.59,1.26-.79v-.08c-.29-.21-1.26-.32-2.92-.32-.46,0-1.13.05-2.01.16.28.35.62.69,1,1.03Z"/>
      <path class="cls-3" d="M116.63,233.33c-.3,1.21-.64,2.25-1.03,3.11-.38.86-.71,1.37-.99,1.5-.21.11-.58.16-1.11.16-.07,0-.13-.09-.17-.27s-.06-.38-.06-.6c0-.52.05-1,.14-1.44.09-.44.22-.79.38-1.04.16-.25.33-.38.5-.38.99,0,1.58-.05,1.78-.16l-1.47-7.08,2.68-1.75-.16,4.46c-.04,1.12-.21,2.29-.51,3.5Z"/>
      <path class="cls-3" d="M119.83,237.55l-1.5-10.43,2.68-1.75-.55,11.78-.63.4Z"/>
      <path class="cls-3" d="M125.76,237.83c-.28-.19-.48-.45-.61-.8-.2.81-.47,1.55-.81,2.24s-.71,1.2-1.12,1.55c-.54.46-1.19.85-1.96,1.18-.77.33-1.46.49-2.07.49-.44,0-.87-.18-1.28-.54-.41-.36-.93-1.03-1.56-2.01,1.26-.11,2.51-.29,3.74-.56s2.29-.58,3.18-.94,1.48-.7,1.76-1.04c-.07-.3-.34-.86-.8-1.69-.46-.83-.93-1.62-1.41-2.37l1.82-2.07c.32.9.6,1.57.86,2.01.26.44.53.73.82.88.29.15.68.22,1.16.22l-.79,3.74c-.35,0-.66-.09-.94-.28Z"/>
      <path class="cls-3" d="M126.52,237.84c-.04-.18-.06-.38-.06-.6,0-.52.05-1,.14-1.44.09-.44.22-.79.38-1.04.16-.25.33-.38.5-.38h2.37l-.79,3.74h-2.37c-.07,0-.13-.09-.17-.27Z"/>
      <path class="cls-3" d="M128.89,237.84c-.04-.18-.06-.38-.06-.6,0-.52.05-1,.14-1.44.09-.44.22-.79.38-1.04.16-.25.33-.38.5-.38h2.37l-.79,3.74h-2.37c-.07,0-.13-.09-.17-.27Z"/>
      <path class="cls-3" d="M131.26,237.84c-.04-.18-.06-.38-.06-.6,0-.52.05-1,.14-1.44.09-.44.22-.79.38-1.04.16-.25.33-.38.5-.38h2.37l-.79,3.74h-2.37c-.07,0-.13-.09-.17-.27Z"/>
      <path class="cls-3" d="M133.63,237.84c-.04-.18-.06-.38-.06-.6,0-.52.05-1,.14-1.44.09-.44.22-.79.38-1.04.16-.25.33-.38.5-.38h2.37l-.79,3.74h-2.37c-.07,0-.13-.09-.17-.27Z"/>
      <path class="cls-3" d="M136,237.84c-.04-.18-.06-.38-.06-.6,0-.52.05-1,.14-1.44.09-.44.22-.79.38-1.04.16-.25.33-.38.5-.38h2.37l-.79,3.74h-2.37c-.07,0-.13-.09-.17-.27Z"/>
      <path class="cls-3" d="M138.37,237.84c-.04-.18-.06-.38-.06-.6,0-.52.05-1,.14-1.44.09-.44.22-.79.38-1.04.16-.25.33-.38.5-.38h2.37l-.79,3.74h-2.37c-.07,0-.13-.09-.17-.27Z"/>
      <path class="cls-3" d="M140.74,237.84c-.04-.18-.06-.38-.06-.6,0-.52.05-1,.14-1.44.09-.44.22-.79.38-1.04.16-.25.33-.38.5-.38h2.37l-.79,3.74h-2.37c-.07,0-.13-.09-.17-.27Z"/>
      <path class="cls-3" d="M143.1,237.84c-.04-.18-.06-.38-.06-.6,0-.52.05-1,.14-1.44.09-.44.22-.79.38-1.04.16-.25.33-.38.5-.38h2.37l-.79,3.74h-2.37c-.07,0-.13-.09-.17-.27Z"/>
      <path class="cls-3" d="M145.47,237.84c-.04-.18-.06-.38-.06-.6,0-.52.05-1,.14-1.44.09-.44.22-.79.38-1.04.16-.25.33-.38.5-.38h2.37l-.79,3.74h-2.37c-.07,0-.13-.09-.17-.27Z"/>
      <path class="cls-3" d="M153.5,227.73c.47.46.83,1.08,1.08,1.87.25.79.38,1.66.38,2.62,0,.59-.12,1.27-.37,2.02-.25.75-.56,1.44-.93,2.05-.37.61-.73,1-1.07,1.19-.77.42-2.01.64-3.71.64h-.87c-.07,0-.13-.09-.17-.27s-.06-.38-.06-.6c0-.52.05-1,.14-1.44.09-.44.22-.79.38-1.04.16-.25.33-.38.5-.38h.71c1.36,0,2.41-.03,3.17-.09s1.36-.16,1.81-.31l-.02-.11-.17-1.02c-.51.25-1.04.45-1.59.6-.55.14-1.09.21-1.62.21-.59,0-1.05-.16-1.39-.49s-.51-.77-.51-1.34c0-.74.12-1.49.36-2.23.24-.74.57-1.35.98-1.83.41-.48.86-.72,1.34-.72.61,0,1.15.23,1.62.68ZM150.82,223.81c.29.27.6.49.92.68l1.01-1.43c.15.22.43.47.84.75.42.28.82.5,1.21.68l-1.18,1.67c-.74-.24-1.38-.68-1.94-1.31l-.98,1.31c-.34-.15-.67-.36-1-.64-.33-.28-.57-.54-.74-.8l1.18-1.67c.16.23.38.48.67.75ZM150.02,230.75c.32.08.78.12,1.39.12.71,0,1.41-.08,2.12-.24-.25-.41-.56-.72-.92-.91-.36-.19-.78-.29-1.28-.29-.39,0-.77.09-1.13.27s-.64.41-.83.68c.12.16.33.28.65.36Z"/>
      <path class="cls-3" d="M158.24,237.71c-.41-.27-.71-.67-.92-1.23-.21-.55-.36-1.28-.46-2.2-.27-2.77-.62-5.08-1.03-6.92l2.68-1.99c.02.85.03,1.47.03,1.86,0,1.09-.04,2.73-.11,4.9-.02.82.14,1.39.48,1.73.34.33.92.5,1.73.5l-.79,3.74c-.67,0-1.21-.13-1.62-.4Z"/>
      <path class="cls-3" d="M160.31,241.39c-.41-.31-.69-.59-.84-.82l1.26-1.67c.16.23.44.51.84.82.41.31.81.57,1.21.77l-1.26,1.67c-.4-.2-.8-.46-1.21-.77ZM164.52,232.3c0,.58-.15,1.28-.44,2.08s-.65,1.53-1.07,2.19c-.42.66-.78,1.07-1.1,1.23-.23.12-.51.2-.84.25-.33.05-.73.07-1.22.07-.07,0-.13-.09-.17-.27s-.06-.38-.06-.6c0-.52.05-1,.14-1.44.09-.44.22-.79.38-1.04.16-.25.33-.38.5-.38,1.03,0,1.77-.01,2.23-.03s.79-.06,1.01-.13c-.07-.23-.29-.61-.64-1.14s-.69-.97-1.02-1.33l1.74-1.91c.37,1.11.55,1.94.55,2.47Z"/>
      <path class="cls-3" d="M171.66,233.24c.13.58.2,1.08.2,1.52,0,.73-.1,1.5-.3,2.31-.2.81-.47,1.55-.81,2.22s-.71,1.18-1.11,1.52c-.54.46-1.19.85-1.96,1.18-.77.33-1.46.49-2.07.49-.44,0-.87-.18-1.28-.54-.41-.36-.93-1.03-1.56-2.01,1.26-.11,2.51-.29,3.74-.56s2.29-.58,3.18-.94,1.48-.7,1.76-1.04c-.07-.3-.36-.87-.85-1.7-.5-.84-1.03-1.68-1.59-2.52l1.97-2.23c.32.96.54,1.72.67,2.3ZM169.63,229.69c-.41-.31-.69-.59-.85-.82l1.26-1.67c.16.23.44.51.84.82.41.31.81.57,1.21.77l-1.26,1.67c-.4-.2-.8-.46-1.21-.77Z"/>
      <path class="cls-3" d="M176.52,235.08c0,1.23-.2,2.42-.58,3.57-.39,1.15-.88,2.07-1.48,2.78-.6.71-1.2,1.06-1.8,1.06-.37,0-.73-.16-1.1-.49s-.81-.93-1.35-1.81c1.26-.3,2.48-.7,3.66-1.19,1.18-.5,1.96-.98,2.34-1.43-.07-.32-.39-.94-.94-1.85s-1.11-1.76-1.67-2.52l1.97-2.23c.63,1.7.95,3.08.95,4.14Z"/>
      <path class="cls-3" d="M182.21,231.01c.48.47.87,1.1,1.15,1.9.28.8.43,1.68.43,2.65,0,1.35-.18,2.53-.55,3.56-.37,1.02-.87,1.77-1.5,2.25-.46.35-1.04.65-1.75.9s-1.28.37-1.73.37c-.31,0-.59-.08-.85-.23-.26-.15-.55-.43-.85-.82-.3-.39-.66-.95-1.06-1.66,1.96-.16,3.64-.4,5.05-.72,1.41-.32,2.38-.69,2.92-1.11-.04-.46-.08-.81-.11-1.07-.47.33-1.03.59-1.68.78-.65.19-1.29.29-1.92.29s-1.12-.2-1.49-.59c-.37-.39-.56-.91-.56-1.56,0-.61.12-1.36.36-2.27.24-.91.58-1.7,1.03-2.37.44-.67.95-1.01,1.53-1.01s1.09.23,1.58.7ZM178.56,234.45c.3.1.76.15,1.36.15.97,0,1.8-.11,2.51-.32-.58-.85-1.42-1.27-2.51-1.27-.31,0-.6.05-.88.16-.28.11-.5.24-.68.4s-.26.32-.26.48c0,.17.15.3.46.41Z"/>
      <path class="cls-3" d="M190.78,237.38c-.46-.48-.77-1.2-.92-2.14l-.24-1.61c-.22.66-.46,1.28-.73,1.86-.26.58-.47.92-.62,1.02-.18.11-.42.19-.73.24-.31.05-.62.08-.93.08-.58,0-1.04-.12-1.38-.36-.34-.24-.51-.54-.51-.92,0-.43.09-.93.28-1.49.18-.56.42-1.08.69-1.57s.56-.85.84-1.08c.92-.76,1.76-1.42,2.53-1.97l-.16-.89,1.97-1.59c.12.65.21,1.57.28,2.75.03.45.07.92.11,1.43.04.51.09,1,.16,1.46.08.58.27,1.02.56,1.31.29.29.73.44,1.33.44l-.79,3.74c-.72,0-1.31-.24-1.77-.72ZM187.26,233.33c.75,0,1.52-.04,2.32-.13l-.27-2.15c-2.41,1.12-3.68,1.75-3.81,1.88.19.27.77.4,1.75.4Z"/>
      <path class="cls-3" d="M192.38,237.84c-.04-.18-.06-.38-.06-.6,0-.52.05-1,.14-1.44.09-.44.22-.79.38-1.04.16-.25.33-.38.5-.38h2.37l-.79,3.74h-2.37c-.07,0-.13-.09-.17-.27Z"/>
      <path class="cls-3" d="M194.75,237.84c-.04-.18-.06-.38-.06-.6,0-.52.05-1,.14-1.44.09-.44.22-.79.38-1.04.16-.25.33-.38.5-.38h2.37l-.79,3.74h-2.37c-.07,0-.13-.09-.17-.27Z"/>
      <path class="cls-3" d="M207.75,237.5c-.41-.4-.63-.96-.67-1.66-.2.73-.44,1.29-.73,1.68-.28.39-.6.58-.93.58-.48,0-.89-.19-1.21-.56-.32-.37-.52-.89-.59-1.54-.23.73-.52,1.26-.86,1.6-.34.33-.75.5-1.21.5-.5,0-.89-.19-1.18-.56-.29-.37-.45-.93-.48-1.67-.26.79-.61,1.35-1.05,1.7-.44.35-.96.53-1.56.53-.07,0-.13-.09-.17-.27s-.06-.38-.06-.6c0-.52.05-1,.14-1.44.09-.44.22-.79.38-1.04.16-.25.33-.38.5-.38.78,0,1.37-.15,1.78-.46.41-.31.68-.74.82-1.29l.16-.64h.08v.64c0,1.17.5,1.75,1.5,1.75.58,0,1.01-.12,1.3-.36.29-.24.51-.62.67-1.15l.16-.56h.08v.4c0,.56.13.98.39,1.26.26.28.61.41,1.03.41.32,0,.55-.11.71-.32.16-.21.26-.56.32-1.04l.16-1.35.55-.24v1.04c0,.7.2,1.19.59,1.48.39.29.99.43,1.78.43l-.79,3.74c-.67,0-1.21-.2-1.62-.6ZM203.09,228.59c.29.27.6.49.92.68l1.01-1.43c.15.22.43.47.84.75.42.28.82.5,1.21.68l-1.18,1.67c-.74-.24-1.38-.68-1.94-1.3l-.98,1.3c-.34-.15-.67-.36-1-.64-.33-.28-.57-.54-.74-.8l1.18-1.67c.16.23.38.48.67.75ZM203.09,227.27c-.33-.26-.55-.5-.67-.7l1.11-1.59c.15.18.37.39.68.64.31.24.61.46.9.64l-1.11,1.59c-.27-.12-.58-.31-.91-.57Z"/>
      <path class="cls-3" d="M209.57,239.65c.29.26.6.49.92.68l1.01-1.43c.15.22.43.47.84.75.42.28.82.5,1.21.68l-1.18,1.67c-.74-.24-1.38-.68-1.94-1.3l-.98,1.3c-.34-.15-.67-.36-.99-.64-.33-.28-.57-.54-.74-.8l1.18-1.67c.16.23.38.48.67.75ZM214.03,232.3c0,.58-.15,1.28-.44,2.08s-.65,1.53-1.07,2.19c-.42.66-.78,1.07-1.1,1.23-.23.12-.51.2-.84.25-.33.05-.73.07-1.22.07-.07,0-.13-.09-.17-.27s-.06-.38-.06-.6c0-.52.05-1,.14-1.44.09-.44.22-.79.38-1.04.16-.25.33-.38.5-.38,1.03,0,1.77-.01,2.23-.03s.79-.06,1.01-.13c-.07-.23-.29-.61-.64-1.14s-.69-.97-1.02-1.33l1.74-1.91c.37,1.11.55,1.94.55,2.47Z"/>
      <path class="cls-3" d="M220.14,233.57c-.21,2.07-.48,3.29-.82,3.66-.32.36-.68.64-1.09.83-.41.19-.84.29-1.28.29-.64,0-1.14-.19-1.51-.58-.36-.39-.54-.94-.54-1.65,0-.46.02-.9.07-1.34.05-.43.13-1.05.24-1.85h.08v.64c0,.34.14.6.43.77.28.18.75.26,1.39.26.54,0,1.09-.08,1.67-.25.58-.17.99-.35,1.23-.55-.05-.42-.26-1.07-.62-1.93-.36-.86-.68-1.46-.94-1.81l1.74-2.39c.21.45.38.9.52,1.36.14.46.34,1.19.6,2.17l.3,1.16c.2.75.48,1.27.84,1.56.36.29.89.43,1.61.43l-.79,3.74c-1.76,0-2.8-1.51-3.13-4.54Z"/>
      <path class="cls-3" d="M227.92,232.3c0,.58-.15,1.28-.44,2.08s-.65,1.53-1.07,2.19c-.42.66-.78,1.07-1.1,1.23-.23.12-.51.2-.84.25-.33.05-.73.07-1.22.07-.07,0-.13-.09-.17-.27s-.06-.38-.06-.6c0-.52.05-1,.14-1.44.09-.44.22-.79.38-1.04.16-.25.33-.38.5-.38,1.03,0,1.77-.01,2.23-.03s.79-.06,1.01-.13c-.07-.23-.29-.61-.64-1.14s-.69-.97-1.02-1.33l1.74-1.91c.37,1.11.55,1.94.55,2.47ZM225.45,228.9c-.41-.31-.69-.59-.84-.82l1.26-1.67c.16.23.44.51.84.82.41.31.81.57,1.21.77l-1.26,1.67c-.4-.2-.8-.46-1.21-.77Z"/>
      <path class="cls-3" d="M230.29,238.34l-1.5-11.22,2.68-1.75-.55,12.57-.63.4Z"/>
      <path class="cls-3" d="M244.43,232.14c0,.58-.15,1.28-.44,2.08s-.65,1.53-1.07,2.19-.78,1.07-1.1,1.23c-.4.2-1.06.37-1.97.51s-1.86.21-2.84.21c-1.59,0-2.72-.28-3.4-.83-.68-.55-1.02-1.42-1.02-2.59,0-1.09.32-2.47.95-4.14l.08.08c-.08.3-.16.62-.22.97-.06.35-.09.64-.09.86,0,.63.33,1.1,1,1.42.66.32,1.75.49,3.27.49,2.76,0,4.84-.19,6.24-.56-.07-.23-.29-.61-.64-1.14s-.69-.97-1.02-1.33l1.74-1.91c.37,1.11.55,1.94.55,2.47ZM237.2,229.38c.29.27.6.49.92.68l1.01-1.43c.15.22.43.47.84.75.42.28.82.5,1.21.68l-1.18,1.67c-.74-.24-1.38-.68-1.94-1.3l-.98,1.3c-.34-.15-.67-.36-.99-.64-.33-.28-.57-.54-.74-.8l1.18-1.67c.16.23.38.48.67.75Z"/>
      <path class="cls-3" d="M246.72,223.84c-.73,0-1.16.04-1.31.13-.02.04-.03.11-.03.21,0,.29.14.54.42.77s.61.34,1,.34c.19,0,.44-.04.74-.12.31-.08.77-.23,1.39-.44l-.39,1.51c-.7.23-1.45.5-2.26.8-.81.3-1.45.57-1.93.79l.08-.64c.19-.25.56-.56,1.11-.92-.32-.3-.47-.65-.47-1.07s.1-.8.3-1.23c.2-.42.45-.78.76-1.06.3-.28.61-.42.92-.42.33,0,.72.03,1.18.08l-.63,1.29-.87-.03ZM247.47,237.71c-.41-.27-.71-.67-.92-1.23-.21-.55-.36-1.28-.46-2.2-.15-1.29-.41-2.86-.79-4.7l2.45-1.83c0,.57-.01,1.29-.03,2.16-.03.67-.05,1.44-.05,2.32,0,.79.17,1.33.51,1.65s.91.47,1.7.47l-.79,3.74c-.67,0-1.21-.13-1.62-.4Z"/>
      <path class="cls-3" d="M249.12,239.65c.29.26.6.49.92.68l1.01-1.43c.15.22.43.47.84.75.42.28.82.5,1.21.68l-1.18,1.67c-.74-.24-1.38-.68-1.94-1.3l-.98,1.3c-.34-.15-.67-.36-1-.64-.33-.28-.57-.54-.74-.8l1.18-1.67c.16.23.38.48.67.75ZM253.03,237.46c-.4-.43-.61-1.07-.63-1.92-.33.9-.73,1.55-1.22,1.96s-1.16.6-2.01.6h-.08c-.07,0-.13-.09-.17-.27s-.06-.38-.06-.6c0-.52.05-1,.14-1.44.09-.44.22-.79.38-1.04.16-.25.33-.38.5-.38h.08c.85,0,1.46-.1,1.82-.31s.57-.55.62-1.04l.16-1.35.55-.24v1.04c0,.7.2,1.19.59,1.48.4.29.99.43,1.78.43l-.79,3.74c-.71,0-1.26-.21-1.66-.64Z"/>
      <path class="cls-3" d="M258.69,228.85c.55.4,1.24.85,2.08,1.36.7.41,1.24.76,1.63,1.04s.72.61.98.98c.26.37.39.79.39,1.26,0,.64-.17,1.33-.51,2.08s-.72,1.4-1.14,1.95-.72.83-.88.83c-.37,0-.98-.1-1.82-.29-.85-.2-1.61-.43-2.28-.69-.82.5-1.64.75-2.45.75-.07,0-.13-.09-.17-.27s-.06-.38-.06-.6c0-.52.05-1,.14-1.44.09-.44.22-.79.38-1.04.16-.25.33-.38.5-.38h.38c.09-.56.26-1.14.51-1.74.24-.59.53-1.13.85-1.61-.36-.32-.62-.61-.79-.88l.79-2.71c.43.54.92,1.01,1.47,1.41ZM256.66,233.8c.26.19.68.35,1.25.5.54-.04.96-.11,1.26-.22.3-.1.57-.25.81-.44,0-.19-.08-.42-.25-.69-.17-.27-.38-.5-.65-.69l-.46-.25c-.16-.07-.34-.11-.54-.11-.32,0-.61.08-.89.24-.28.16-.5.35-.67.57-.17.22-.25.4-.25.54,0,.18.13.36.39.55ZM261.66,234.99c.73.14,1.29.22,1.69.25l.03-.32c0-.26-.2-.52-.58-.77-.39-.25-1.01-.58-1.86-.98l-.73-.35c-.06.6-.24,1.18-.52,1.73.59.15,1.25.29,1.97.43Z"/>
    </g>
    <text class="cls-1" transform="translate(113.25 163.24)"><tspan x="0" y="0">محـــــــرم </tspan></text>
    <g>
      <path class="cls-2" d="M180.15,85.24c4.76-2.05,15.25-8.84,19.82-11.28,1.36-.72,1.67-.91,1.42-2.52-.05-.34-.21-1.06-.21-1.06,0,0,.04,1.2-1.1,1.58-.84.28-1.76.11-2.6-.63-1.39-1.22-.03-3.34.79-4.41.45-.6,1.01-1.28,1.81-1.35,1.23-.11,1.79,1.23,2.11,2.2.09.26.16.51.22.76.78-.38,1.56-.78,2.34-1.18,2.09-1.06,4.27-2.07,6.24-3.35-.29.19-.64,1.46-1.16,1.81-2.26,1.47-4.74,2.69-7.19,3.87.13,1.22-.12,2.34-.93,3.53-1.42,2.1-3.67,3-5.91,4.05-2.99,1.4-13.3,6.97-16.33,8.28"/>
      <path class="cls-2" d="M240.48,115.52c4.76-2.05,15.25-8.84,19.82-11.28,1.36-.72,1.67-.91,1.42-2.52-.05-.34-.21-1.06-.21-1.06,0,0,.04,1.2-1.1,1.58-.84.28-1.76.11-2.6-.63-1.39-1.22-.03-3.34.79-4.41.45-.6,1.01-1.28,1.81-1.35,1.23-.11,1.79,1.23,2.11,2.2.09.26.16.51.22.76.78-.38,1.56-.78,2.34-1.18,2.09-1.06,4.27-2.07,6.24-3.35-.29.19-.64,1.46-1.16,1.81-2.26,1.47-4.74,2.69-7.19,3.87.13,1.22-.12,2.34-.93,3.53-1.42,2.1-3.67,3-5.91,4.05-2.99,1.4-13.3,6.97-16.33,8.28"/>
      <path class="cls-2" d="M256.37,159.39c2.96-1.22,20.6-10.3,20.6-10.3l.26-1.61-20.87,11.9Z"/>
      <path class="cls-2" d="M69.33,163.24c2.96-1.22,20.6-10.3,20.6-10.3l.26-1.61-20.87,11.9Z"/>
      <path class="cls-2" d="M297.43,94.2c1.5,2.41,1.87,5.47.96,8.16-.06.18.1-.21.07-.13.11-.27.22-.54.33-.81.23-.55.48-1.1.67-1.67.93-2.74.6-5.8-.92-8.26,0,.01-.19.44-.17.39-.13.32-.26.64-.39.95s-.26.64-.38.96c-.02.06-.18.36-.15.4h0Z"/>
      <path class="cls-2" d="M283.74,155.24c2.09,1.61,5.04,2.47,6.57,4.72,1.22,1.79,1.11,4.03.09,5.87,1.81-3.27,4.85-5.88,6.68-9.16,1.02-1.84,1.13-4.08-.09-5.87-1.53-2.25-4.48-3.12-6.57-4.72.01,0-6.82,9.05-6.68,9.16h0Z"/>
      <path class="cls-2" d="M245.56,68.15c2.02,1.55,4.86,2.38,6.33,4.55,1.18,1.73,1.07,3.88.09,5.66,1.75-3.15,4.68-5.66,6.43-8.83.98-1.77,1.09-3.93-.09-5.66-1.48-2.16-4.32-3-6.33-4.55,0,0-6.57,8.72-6.43,8.83h0Z"/>
      <path class="cls-2" d="M257.69,68.15c2.02,1.55,4.86,2.38,6.33,4.55,1.18,1.73,1.07,3.88.09,5.66,1.75-3.15,4.68-5.66,6.43-8.83.98-1.77,1.09-3.93-.09-5.66-1.48-2.16-4.32-3-6.33-4.55,0,0-6.57,8.72-6.43,8.83h0Z"/>
      <path class="cls-2" d="M230.69,111.37c-.18-2.53-.87-8.04-1.75-14.61-2.95.44-5.9.88-8.85,1.32l4.18,32.73c-1.76,2.14-15.02,5.05-10.3-5.19,2.86-6.31-6.48-2.84-8.7-2.12-2.45.78-4.94,1.44-7.34,2.13-.75.21-5.37,1.31-6.97,1.15-4.49-.43-5.74-3.87-5.51-7.5.43-.36.9-.68,1.42-.89,2.14-.87,4.68-.27,6.88.03,2.73.37,5.74.67,8.19-.9,1.45-.94,2.4-2.35,3.17-3.87.12-.24.25-.49.37-.73,0-.01,0-.02.03-.06.04-.06.09-.17.16-.32.02-.03.03-.05.04-.08,1.77-3.49,3.51-7.11,4.84-10.78-.44,1.14-.98,2.25-1.54,3.35.23-.49.45-.99.68-1.48-.11.22-.24.43-.37.64-.19.29-.39.58-.61.85-.48.6-1.04,1.14-1.68,1.57-1.04.69-2.23,1.07-3.46,1.21-2.54.29-5.06-.34-7.56-.59-2.35-.23-4.41-.01-6.13,1.74-.87.89-1.59,1.94-2.21,3.02-.17.3-.33.6-.49.9-.07.15-.16.33-.16.33-1.55,2.88-2.79,5.96-4.13,8.93-.9,1.97-2.09,4.87-2.45,7.64-2.46.48-4.94.9-7.42,1.27-10.4,1.53-47.53,4.16-60.57,1.84-7.97-1.11-17.69-3.65-21.48-11.61-.14-.29-.27-.58-.38-.87-1.34-3.39-2.73-15.13-3.78-26.14,2.38,4.19,6.94,6.66,11.33,8.26,14.89,5.45,32.31,4.63,47.86,3.88,24.88-1.2,49.49-4.69,74.09-8.34l-1.68-13.17c-16.08,2.36-32.18,4.57-48.35,6.17-18.42,1.84-37.3,3.35-55.77,1.36-7.11-.77-14.72-2-21.02-5.61-.74-.42-1.68-.89-2.66-1.39-3.05-1.58-5.25-4.41-6.11-7.73l-1.13-6.49c0,.33-5.55,15.82-5.55,15.82,0,0,6.96,38.51,7.06,39.92l-1.75,1.22c-1.55,1.03-3.2,1.92-4.92,2.56-.08-2.28.24-10.76-6.54-15.54-2.27-1.35-5-1.35-7.15.2-.92.66-1.66,1.53-2.24,2.49-1.46,2.42-2.5,5.17-3.67,7.73-1.38,3.04-3.28,6.26-2.24,9.71.91,2.99,3.46,5.23,6.3,6.37,3.16,1.26,6.35,1.15,9.37.24.07-.02,1.01-.32,1.16-.39.02,0,.03,0,.05-.02.96-.35,1.9-.79,2.81-1.28,1.93-1.04,4.59-2.65,6.01-4.45,1.44-1.84,2.44-4.41,3.57-6.46.1.67.22,1.34.38,2,1.85,7.84,8.95,10.74,16.04,12.21,20.05,4.15,41.01,1.96,61.02-1.3,11.16-1.81,22.4-3.76,33.28-6.87,4.99-1.34,14.29-4.14,14.11-3.71-.22.52-.42,1.03-.62,1.56-.88,2.32-1.08,4.97,0,7.27,2.31,4.88,8.51,5.38,11.6,1.03,6.62-7.74,8.93-18.38,9.13-19.71.52-3.44.36-6.99.11-10.44ZM69.26,131.39c-3.34-.87-6.31-3.18-7.56-6.14,1.4-.35,2.93-.25,4.33.41,2.51,1.18,4.2,3.49,5.21,6.07-.66-.06-1.31-.18-1.98-.34Z"/>
      <path class="cls-2" d="M228.94,96.76c-2.95.44-5.9.88-8.85,1.32l-1.68-13.17-1.53-11.95s6.63-14.11,6.63-14.42c.24,1.7,1.93,13.15,3.62,25.09.63,4.47,1.26,9.01,1.81,13.13Z"/>
      <path class="cls-2" d="M238.46,130.69c.01,1.62-.03,3.24-.22,4.85-.09.72-.2,1.44-.36,2.14-.06.28-.14.55-.22.82-.04.14-.09.27-.13.41-.11.4,6.22-13.43,5.97-13.01-1.33,2.25-2.3,4.81-3.39,7.19-1.08,2.36-1.92,5.02-3.24,7.25.66-1.13,1.18-2.34,1.73-3.52,1.73-3.7,3.51-7.41,5.09-11.18.52-1.25.88-2.5,1.08-3.84.51-3.44.36-6.98.11-10.44-.6-8.37-6.71-49.48-7.18-52.83.04.25-6.63,14.42-6.63,14.42,0,0,7.29,44.6,7.39,57.73Z"/>
      <path class="cls-2" d="M89.03,121.42c.51-3.44.36-6.98.11-10.44-.6-8.37-6.71-49.48-7.18-52.83.04.25-6.63,14.42-6.63,14.42,0,0,7.29,44.6,7.39,57.73.01,1.62-.03,3.24-.22,4.85"/>
      <path class="cls-2" d="M301.17,111.63s-5.07,10.72-4.97,10.83c2.22,2.56,4.19,5.58,4.82,8.92-1.21.46-4.55.59-5.82.39-6.82-1.09-5.15-9.71-4.19-14.48.94-4.61,1.52-9.29,1.83-13.99.5-7.83-.03-16.24-5.4-22.46-2.68-3.1-6.72-3.73-10.65-3.67-.58,0-1.16.04-1.74.07-14.77.85-29.51,3.64-44.12,5.82-1.27.19-2.53.38-3.8.57-2.91.43-5.81.86-8.72,1.28l1.68,13.17c2.95-.44,5.9-.88,8.85-1.32,10.83-1.61,21.66-3.21,32.52-4.61,5.88-.76,11.96-1.72,17.91-1.52,3.49.12,6.99,1.74,8.82,4.81,2.4,4.03,1.98,8.85,1.41,13.31-.65,4.94-1.89,9.8-3.03,14.65-1.05,4.41-2.53,9.47-1.24,13.99,1.13,3.96,5.99,6.09,9.84,5.09,8.26-2.13,10.08-14.86,10.57-16.52,1.59-5.3-4.57-14.33-4.57-14.33Z"/>
      <path class="cls-2" d="M191.47,78.18s0,0,0,.01h0s0,0,0-.01Z"/>
      <path class="cls-2" d="M254.05,137.85c.36-.55.69-1.13,1.02-1.7-.29.65-.59,1.29-.88,1.93-.04-.08-.09-.15-.13-.24Z"/>
      <path class="cls-2" d="M256.94,122.1c-.37-1.19-.66-2.41-.87-3.65.31,1.22.62,2.43.87,3.65Z"/>
      <path class="cls-2" d="M78.06,136.23c-.28.65-.57,1.31-.87,1.96-1.82,4-3.59,8.64-6.28,12.24-6.03,8.05-19.26,10.8-19.26,10.8h-29.47s42.47-10.57,52.61-20.52c.11-.1.21-.19.32-.3.12-.96.17-1.93.15-2.9.96-.36,1.9-.79,2.81-1.29Z"/>
      <path class="cls-2" d="M254.05,137.85c.04.08.09.16.13.24.29-.65.59-1.29.88-1.93-.33.57-.65,1.14-1.02,1.7ZM255.57,113.12c0,.18-.29.72-.51,1.12.29,1.43.66,2.82,1.02,4.22-.32-1.77-.48-3.58-.5-5.33Z"/>
      <path class="cls-2" d="M262.99,116.73c.34-.36.73-.68,1.14-.96-.41.27-.8.59-1.14.96Z"/>
      <path class="cls-2" d="M284.33,113.84c-1.11-4.56-4.55-9.13-9.41-9.99-2.13-.38-4.47.04-6.2,1.38-2.47,1.32-8.47,15.23-7.61,18.6.52,2.08,2.57,4.25,4.38,5.36,3.33,2.04,8.89-.84,11.42-3.12.29-.26.67-1.35.77-1.57.32-.69.64-1.38.95-2.06.11.26.22.53.31.8.59,1.73.89,3.57.87,5.4,0,.05,0,.1-.01.15-1.9,1.71-4.16,2.94-6.73,3.58-3.04.75-6.76.72-9.59-.79-2.44-1.3-4.12-3.63-5.26-6.09-.5-1.08-.93-2.21-1.28-3.38-.37-1.19-.66-2.41-.87-3.66-.36-1.39-.72-2.78-1.01-4.21-.14.23-.25.42-.25.44-.61,1.27-1.2,2.55-1.78,3.82-.58,1.28-1.17,2.56-1.74,3.84-.19.42-.7,1.15-.69,1.61,0,1.63,1.92,14.74,1.76,16.03-.1.1-.21.2-.32.3-3.05,2.71-7.15,4.28-10.92,5.63-4.83,1.71-9.8,3.01-14.8,4.1-4.98,1.08-66.65,14.3-71.72,14.82,0,.02,51.65-2.53,51.65-2.5,10.42-1.05,21.08-2.3,30.9-5.95,3.81-1.42,8.35-3.15,11.01-6.38,2.76-3.34,4.35-7.9,6.09-11.81,1.29,2.08,3.03,3.86,5.37,4.72,3.69,1.38,8.2.83,11.68-.87,3.9-1.91,7.78-8.53,7.78-8.53l3.75-8.16s2.52-7.32,1.5-11.51ZM266.82,114.7c.95-.19,1.94-.2,2.89-.06,2.57.39,4.79,1.85,6.47,3.81-1.15.35-2.32.54-3.44.51-2.3-.07-4.67-2.02-5.92-4.26h0"/>
      <path class="cls-2" d="M291.48,106.75c-.01-.58-.06-1.65-.17-2.4-.14-.98-.29-1.97-.5-2.94.2-.84.34-1.7.45-2.56.29-2.34.21-7.11.2,2.38,0,3.21,0,4.84.02,5.52Z"/>
      <polygon class="cls-2" points="301.57 112.21 312.13 128.8 312.13 128.8 298.75 118.18 301.57 112.21 301.57 112.21"/>
      <path class="cls-2" d="M52.95,119.9c-1.02-4.81-4.7-7.86-8.63-10.36-.25-.16-.52-.34-.81-.43-1.64,3.61-3.28,7.23-4.92,10.84.56.23,1.11.46,1.68.68,0,.01-.02.04-.05.1-3.68,5.21-33.79,23.38-33.79,23.38l19.58-1.31s6.57-6.96,10.12-12.6c-.88,2.05-1.71,4.16-1.86,6.39-.14,2.22.5,4.6,2.18,6.07,1.8,1.58,4.53,1.83,6.77.98,4.71-1.79,6.6-6.92,8-11.32,1.12-3.5,2.17-7.15,1.95-10.78-.03-.55-.11-1.1-.22-1.63ZM42.37,132.3c-1.46-1.03-2.5-2.57-2.92-4.29-.25-1.02-.3-2.07-.19-3.1.06-.52.18-1.03.29-1.55.02-.1.04-.19.05-.26h0c.31-.78.63-1.55,1-2.27,3.1,1.6,5.6,4.19,6.97,7.46.61,1.47.97,3.05,1.09,4.63-1.96.92-4.26.82-6.29-.62Z"/>
      <polygon class="cls-2" points="223.51 58.54 234.08 75.13 234.08 75.13 220.81 64.79 223.51 58.54 223.51 58.54"/>
      <polygon class="cls-2" points="237.68 58.54 248.25 75.13 248.25 75.13 234.98 64.79 237.68 58.54 237.68 58.54"/>
      <circle class="cls-2" cx="248.25" cy="161.24" r="1.33"/>
      <circle class="cls-2" cx="29.81" cy="150" r="1.33"/>
      <circle class="cls-2" cx="106.83" cy="79" r="1.33"/>
      <g>
        <path class="cls-2" d="M151.59,120.71c.13-2.57,2.78-5.11,5.42-4.06.83.33,1.52,1.01,1.82,1.86.06.19.11.38.14.57.01.09.02.19.02.28,0-.81,0-1.62,0-2.43v.08c-.01.07-.02.13-.03.2-.06.41-.2.81-.4,1.18-.54,1-1.49,1.69-2.53,2.08-.02,0-.01.46,0,.41,0,.33,0,.66,0,.99s0,.66,0,.99c0,.04.02.41,0,.41,1.02-.39,1.95-1.05,2.5-2.02.23-.4.38-.85.44-1.31.03-.27.03-.54.04-.81,0-.84.04-1.7-.01-2.54-.05-.88-.45-1.69-1.14-2.25-1.12-.91-2.63-.91-3.87-.24-1.45.78-2.32,2.28-2.41,3.91-.03.57-.01,1.15,0,1.72,0,.28,0,.56,0,.84,0,.03,0,.28.01.14h0Z"/>
        <path class="cls-2" d="M148.34,119.56c1.7.08,3.08,1.42,3.23,3.11v-.05c0,.05,0,.11,0,.16,0,.18.01-.23.01-.14,0-.28,0-.56,0-.84,0-.57.01-1.15,0-1.72-.03-.86-.36-1.68-.96-2.3s-1.43-.97-2.28-1.01c.02,0-.06,2.8,0,2.8h0Z"/>
      </g>
      <g>
        <path class="cls-2" d="M58.7,108.97c.13-2.57,2.78-5.11,5.42-4.06.83.33,1.52,1.01,1.82,1.86.06.19.11.38.14.57.01.09.02.19.02.28v-2.43s0,.06,0,.08c0,.07-.01.13-.02.2-.06.41-.2.81-.4,1.18-.54,1-1.49,1.69-2.53,2.08-.02,0-.01.46,0,.41,0,.33,0,.66,0,.99s0,.66,0,.99c0,.04.02.41,0,.41,1.02-.39,1.95-1.05,2.5-2.02.23-.4.38-.85.44-1.31.03-.27.03-.54.04-.81,0-.84.04-1.7-.01-2.54-.05-.88-.45-1.69-1.14-2.25-1.12-.91-2.63-.91-3.87-.24-1.45.78-2.32,2.28-2.41,3.91-.03.57-.01,1.15,0,1.72,0,.28,0,.56,0,.84,0,.03,0,.28.01.14h0Z"/>
        <path class="cls-2" d="M55.46,107.83c1.7.08,3.08,1.42,3.23,3.11v-.05c0,.05,0,.11,0,.16,0,.18.01-.23.01-.14,0-.28,0-.56,0-.84,0-.57.01-1.15,0-1.72-.03-.86-.36-1.68-.96-2.3s-1.43-.97-2.28-1.01c.02,0-.06,2.8,0,2.8h0Z"/>
      </g>
    </g>
    <g>
      <path class="cls-2" d="M166.58,69.22c-.76,1.55-1.57,3.65-.6,5.29.74,1.25,2.28,1.64,3.65,1.61,1.89-.04,3.77-.77,5.33-1.81.19-.12.43-.25.58-.41.36-.39.63-1.09.89-1.55.45-.8.9-1.59,1.33-2.4.18-.33.3-.65.29-1.04-.02-1.33-1.14-2.49-2.3-2.99-1.24-.53-2.67-.36-3.77.4-.46.32-.84.72-1.13,1.2-.88,1.41-1.74,2.91-2.47,4.4-.56,1.17-.44,2.52.7,3.28s2.7.76,4.03.75c1.58-.02,3.15-.22,4.69-.58s2.61-.95,3.4-2.29,1.55-2.67,2.26-4.04c.3-.58.51-1.19.53-1.85.04-1.68-1.2-2.34-2.58-2.94-1.71-.74-3.51-1.2-5.28-1.75-1.05-.33-2.25-.66-3.14-1.35-.39-.3-.68-.69-.59-1.21.04-.23.15-.41.23-.62.1-.25-.22.41-.14.26.03-.06.07-.12.1-.18.16-.29.31-.58.47-.87s-.22.34-.14.2c-.25.42-.48.84-.72,1.26-.49.87-.99,1.73-1.45,2.62.02-.04.2-.37.03-.05-.15.28-.31.56-.45.84-.11.22-.23.46-.28.7-.12.54.16.96.58,1.29.94.72,2.22,1.07,3.34,1.41,1.86.56,3.73,1.05,5.5,1.87.81.38,1.69.79,2.01,1.69s.12,1.94-.3,2.76c.72-1.29,1.45-2.59,2.17-3.88-.74,1.27-2.23,1.69-3.57,1.98-1.44.31-2.91.47-4.38.49-1.28.01-2.72,0-3.84-.7-1.18-.73-1.38-2.14-.77-3.33-.72,1.29-1.45,2.59-2.17,3.88.84-1.44,2.89-2.01,4.41-1.53s3.16,2.17,2.52,3.86c.79-1.41,1.59-2.83,2.38-4.24-1.77,1.33-4,2.29-6.25,2.23-1.73-.05-3.42-.88-3.7-2.74-.2-1.38.32-2.79.91-4,.14-.28-.21.33-.14.2-.25.42-.48.84-.72,1.26-.49.87-1.01,1.72-1.45,2.62h0Z"/>
      <path class="cls-2" d="M166.64,71.98c-1.3.73-2.8,1.1-4.23.53-1.06-.42-1.85-1.25-2.31-2.28-.56-1.25-1.1-2.51-1.65-3.77l-2.38,4.24c.43.82.53,1.92.71,2.81.13.64.25,1.28.35,1.93.06.35.22.82.04,1.16l2.29-4.09c-.28.47-.86.77-1.33,1.01-.68.34-1.4.59-2.13.78-.64.17-1.29.31-1.95.35-.24.01-.86.08-.97-.23.01.03-.4.68-.36.61-.29.5-.57,1-.85,1.5-.36.64-.71,1.27-1.08,1.9-.04.08-.09.16-.07.25.02.07.08.13.14.16.44.19,1.08.04,1.53-.03,1.02-.16,2.05-.46,3-.88.42-.19.85-.4,1.22-.69.54-.41.81-1.03,1.14-1.61.59-1.03,1.21-2.06,1.74-3.12.07-.15.14-.29.15-.46.03-.59-.18-1.27-.28-1.85-.14-.79-.3-1.58-.49-2.37-.11-.45-.19-.97-.4-1.38,0,.02-.41.7-.36.61-.29.5-.57,1-.85,1.5s-.56,1-.84,1.5c-.05.1-.37.55-.33.63.55,1.26,1.09,2.51,1.65,3.77.46,1.03,1.25,1.86,2.31,2.28,1.43.57,2.93.2,4.23-.53.1-.06.34-.58.36-.61.29-.5.57-1,.85-1.5s.56-1,.84-1.5c.07-.13.22-.57.33-.63Z"/>
      <path class="cls-2" d="M132.55,61.07c3.11-.68,6.29-.98,9.47-.9.04,0,.4-.68.36-.61.29-.5.57-1,.85-1.5s.56-1,.84-1.5c.04-.07.29-.63.33-.63-3.18-.07-6.36.22-9.47.9-.07.01-.39.65-.36.61-.29.5-.57,1-.85,1.5s-.56,1-.84,1.5c-.05.09-.26.61-.33.63h0Z"/>
      <path class="cls-2" d="M131.49,57.34c-3.58.59-6.79,3.01-8.66,6.08-.94,1.55-1.88,3.15-2.66,4.78-.31.65-.54,1.35-.66,2.06-.76,4.66,2.03,7.3,6.66,7.84,4.89.57,9.7-.53,14.23-2.33,2.98-1.18,6.09-3.09,9.41-2.81,1.54.13,2.64,1.74,2.26,3.22.44-.65.81-1.37,1.2-2.06.53-.95,1.39-1.96,1.24-3.13-.12-.94-.75-1.79-1.65-2.12-.78-.29-1.58-.08-2.36.08-.99.2-1.97.45-2.94.72-3.84,1.07-7.57,2.52-11.51,3.22-3.6.63-7.46.67-10.84-.89-1.41-.65-2.58-1.62-3.1-3.11-.46-1.33-.35-2.81.12-4.12.07-.21.16-.41.25-.61.83-1.81-2.83,4.74-1.72,3.06.28-.42.58-.82.91-1.2.62-.74,1.33-1.41,2.09-2.01,1.57-1.22,3.4-2.1,5.37-2.42.06,0,.39-.66.36-.61.29-.5.57-1,.85-1.5s.56-1,.84-1.5c.05-.09.27-.62.33-.63Z"/>
      <path class="cls-2" d="M154.52,85.29c1.27-.13,2.54.67,2.96,1.88.04-.06.08-.12.11-.18.09-.14.17-.29.25-.43.29-.5.57-1,.85-1.5s.56-1,.84-1.5l.18-.33c.06-.1.11-.19.15-.3-.42-1.21-1.69-2.02-2.96-1.88-.05,0-.4.67-.36.61-.29.5-.57,1-.85,1.5s-.56,1-.84,1.5l-.18.33c-.06.1-.11.19-.15.3h0Z"/>
      <path class="cls-2" d="M158.64,84.2c1.27-.13,2.54.67,2.96,1.88.04-.06.08-.12.11-.18.09-.14.17-.29.25-.43.29-.5.57-1,.85-1.5s.56-1,.84-1.5l.18-.33c.06-.1.11-.19.15-.3-.42-1.21-1.69-2.02-2.96-1.88-.05,0-.4.67-.36.61-.29.5-.57,1-.85,1.5s-.56,1-.84,1.5l-.18.33c-.06.1-.11.19-.15.3h0Z"/>
      <path class="cls-2" d="M155.16,58.2c-.86.07-1.94.25-2.62.82-.39.33-.61.87-.85,1.31-.22.39-.58.86-.58,1.33,0,.84.96,1.13,1.65,1.03.45-.07.88-.25,1.31-.41.49-.18.98-.37,1.47-.55l.95-1.7c-.64.37-1.3.63-1.91,1.06-1.32.94-2.35,2.2-3.2,3.56-.31.5-.67,1.25-.91,1.64.85-1.36,1.9-2.62,3.23-3.55.59-.41,1.24-.67,1.85-1.02.04-.02.14-.23.15-.25.11-.2.23-.4.34-.6s.22-.4.33-.6c.02-.04.1-.24.13-.25-.53.2-1.07.4-1.6.6-.46.17-.92.36-1.41.38-.87.04-1.69-.64-1.29-1.54l-.23.42.06-.1-.72,1.27c.59-.88,1.95-1.1,2.93-1.18.02,0,.16-.27.15-.25.11-.2.23-.4.34-.6s.22-.4.33-.6c.02-.03.11-.25.13-.25h0Z"/>
      <path class="cls-2" d="M149.59,59.44c.81-.46,5.59-3.73,5.59-3.73l.02-.47-5.6,4.2Z"/>
    </g>
    <path class="cls-2" d="M82.11,63.32c2.49-1.73,5.73-1.13,8.02.68,1.18.93,2.12,2.19,2.56,3.64.13.43.19.86.28,1.29.21.96.11-3.51.07-3.23-.05.34-.05.69-.11,1.03-.14.87-.39,1.73-.73,2.54-2.4,5.78-8.75,8.45-14.21,10.63-5.05,2.02-10.28,3.51-15.39,5.38-4.54,1.66-9.16,3.63-12.78,6.92-4.36,3.95-6.19,9.4-6.34,15.17-.03,1.02-.02,2.05-.02,3.08,0,.5-.02,1,.01,1.49,0,.04.01.49.02.25.14-5.49,1.87-10.72,5.89-14.59,3.71-3.56,8.59-5.64,13.35-7.37,5.34-1.94,10.81-3.5,16.07-5.66,5.82-2.4,12.57-5.5,14.03-12.29.49-2.27.3-4.77.24-7.08-.05-1.83-.52-3.57-1.71-5-2.19-2.65-6.26-3.96-9.25-1.87-.23.16-.02,2.19-.02,2.5s.25,2.34.02,2.5h0Z"/>
  </g>
</svg>